<svg xmlns="http://www.w3.org/2000/svg" width="96" height="128" viewBox="0 0 96 128"><defs><linearGradient id="c" x1="0" y1="0" x2="1" y2="1"><stop stop-color="#fefefe"/><stop offset="1" stop-color="#b9d8ff"/></linearGradient><linearGradient id="b" x1="0" y1="0" x2="0" y2="1"><stop stop-color="#1e8fff"/><stop offset="1" stop-color="#0757b8"/></linearGradient><radialGradient id="s"><stop stop-color="#000" stop-opacity=".34"/><stop offset="1" stop-color="#000" stop-opacity="0"/></radialGradient></defs><ellipse cx="48" cy="116" rx="28" ry="8" fill="url(#s)"/><circle cx="48" cy="37" r="22" fill="#f4c7a6"/><path d="M25 38c2-25 43-31 49-4-8-5-13-13-17-18-8 11-20 15-32 16z" fill="#402515"/><circle cx="39" cy="39" r="3.5" fill="#15529c"/><circle cx="58" cy="39" r="3.5" fill="#15529c"/><path d="M39 51q9 7 18 0" stroke="#a95c52" stroke-width="2" fill="none"/><path d="M32 58h32l9 45H23z" fill="url(#c)" stroke="#4d79aa" stroke-width="2"/><path d="M40 59h16v44H40z" fill="url(#b)"/><path d="M28 62l-13 28 10 5 12-25M68 62l13 28-10 5-12-25" fill="none" stroke="#dcecff" stroke-width="9" stroke-linecap="round"/><rect x="31" y="98" width="13" height="22" rx="5" fill="#26384e"/><rect x="52" y="98" width="13" height="22" rx="5" fill="#26384e"/><circle cx="32" cy="65" r="4" fill="#45e6ff"/><path d="M31 20q17-13 34 1" stroke="#75d8ff" stroke-width="4" fill="none" opacity=".65"/></svg>